{
  "title": "Minions.2015.HD-TS.XVID.AC3.HQ.Hive-CM8",
  "uid": 12072362,
  "size": 1576119533,
  "categoryP": "video",
  "categoryS": "movies",
  "magnet": "?xt=urn:btih:1c5bd66d6d491bcdeeeb38cccee656c0a0c7328a&amp;dn=Minions.2015.HD-TS.XVID.AC3.HQ.Hive-CM8&amp;tr=udp%3A%2F%2Ftracker.openbittorrent.com%3A80&amp;tr=udp%3A%2F%2Fopen.demonii.com%3A1337&amp;tr=udp%3A%2F%2Ftracker.coppersurfer.tk%3A6969&amp;tr=udp%3A%2F%2Fexodus.desync.com%3A6969",
  "seeders": 46,
  "leechers": 6,
  "uploader": "Raihan_Mohamed",
  "files": 3,
  "time": 1435542761,
  "description": "General\nComplete name                  : Minions.2015.HD-TS.XVID.AC3.HQ.Hive-CM8.avi\nFormat                         : AVI\nFormat/Info                    : Audio Video Interleave\nFile size                      : 1.29 GiB\nDuration                       : 1h 23mn\nOverall bit rate               : 2 206 Kbps\n\nSCREENS: &lt;a href=&quot;\nhttp://img.imgrevenue.com/img-559088b6ea3bb.html&quot; rel=&quot;nofollow&quot; target=&quot;_NEW&quot;&gt;\nhttp://img.imgrevenue.com/img-559088b6ea3bb.html&lt;/a&gt; \n &lt;a href=&quot;\nhttp://img.imgrevenue.com/img-559088b935bbe.html&quot; rel=&quot;nofollow&quot; target=&quot;_NEW&quot;&gt;\nhttp://img.imgrevenue.com/img-559088b935bbe.html&lt;/a&gt; \n &lt;a href=&quot;\nhttp://img.imgrevenue.com/img-559088bb82766.html&quot; rel=&quot;nofollow&quot; target=&quot;_NEW&quot;&gt;\nhttp://img.imgrevenue.com/img-559088bb82766.html&lt;/a&gt; \n &lt;a href=&quot;\nhttp://img.imgrevenue.com/img-559088be0ae54.html&quot; rel=&quot;nofollow&quot; target=&quot;_NEW&quot;&gt;\nhttp://img.imgrevenue.com/img-559088be0ae54.html&lt;/a&gt; \n &lt;a href=&quot;\nhttp://img.imgrevenue.com/img-559088c0439f5.html&quot; rel=&quot;nofollow&quot; target=&quot;_NEW&quot;&gt;\nhttp://img.imgrevenue.com/img-559088c0439f5.html&lt;/a&gt; \n &lt;a href=&quot;\nhttp://img.imgrevenue.com/img-559088c2bb340.html&quot; rel=&quot;nofollow&quot; target=&quot;_NEW&quot;&gt;\nhttp://img.imgrevenue.com/img-559088c2bb340.html&lt;/a&gt; \n &lt;a href=&quot;\nhttp://img.imgrevenue.com/img-559088c4ed395.html&quot; rel=&quot;nofollow&quot; target=&quot;_NEW&quot;&gt;\nhttp://img.imgrevenue.com/img-559088c4ed395.html&lt;/a&gt; \n &lt;a href=&quot;\nhttp://img.imgrevenue.com/img-559088c7353bd.html&quot; rel=&quot;nofollow&quot; target=&quot;_NEW&quot;&gt;\nhttp://img.imgrevenue.com/img-559088c7353bd.html&lt;/a&gt; \n\n\nVideo\n\nID                             : 0\nFormat                         : MPEG-4 Visual\nFormat profile                 : Advanced Simple@L5\nFormat settings, BVOP          : 2\nFormat settings, QPel          : Yes\nFormat settings, GMC           : No warppoints\nFormat settings, Matrix        : Default (H.263)\nMuxing mode                    : Packed bitstream\nCodec ID                       : XVID\nCodec ID/Hint                  : XviD\nDuration                       : 1h 23mn\nBit rate                       : 2 200 Kbps\nWidth                          : 680 pixels\nHeight                         : 336 pixels\nDisplay aspect ratio           : 2.024\nFrame rate                     : 29.970 fps\nColor space                    : YUV\nChroma subsampling             : 4:2:0\nBit depth                      : 8 bits\nScan type                      : Progressive\nCompression mode               : Lossy\nBits/(Pixel*Frame)             : 0.321\nStream size                    : 1.29 GiB (100%)\nWriting library                : XviD 1.2.1 (UTC 2008-12-04)\n\nAudio\n\nID                             : 1\nFormat                         : AC-3\nFormat/Info                    : Audio Coding 3\nMode extension                 : CM (complete main)\nFormat settings, Endianness    : Big\nCodec ID                       : 2000\nDuration                       : 1h 23mn\nBit rate mode                  : Constant\nBit rate                       : 256 Kbps\nChannel(s)                     : 2 channels\nChannel positions              : Front: L R\nSampling rate                  : 48.0 KHz\nBit depth                      : 16 bits\nCompression mode               : Lossy\nStream size                    : 158 MiB (12%)\nAlignment                      : Split accross interleaves\nInterleave, duration           : 42 ms (1.00 video frame)\nInterleave, preload duration   : 500 ms",
  "parsed": {
    "xt": "urn:btih:1c5bd66d6d491bcdeeeb38cccee656c0a0c7328a",
    "dn": "Minions.2015.HD-TS.XVID.AC3.HQ.Hive-CM8",
    "tr": [
      "udp://exodus.desync.com:6969",
      "udp://open.demonii.com:1337",
      "udp://tracker.coppersurfer.tk:6969",
      "udp://tracker.openbittorrent.com:80"
    ],
    "infoHash": "1c5bd66d6d491bcdeeeb38cccee656c0a0c7328a",
    "infoHashBuffer": {
      "type": "Buffer",
      "data": [
        28,
        91,
        214,
        109,
        109,
        73,
        27,
        205,
        238,
        235,
        56,
        204,
        206,
        230,
        86,
        192,
        160,
        199,
        50,
        138
      ]
    },
    "name": "Minions.2015.HD-TS.XVID.AC3.HQ.Hive-CM8",
    "announce": [
      "udp://exodus.desync.com:6969",
      "udp://open.demonii.com:1337",
      "udp://tracker.coppersurfer.tk:6969",
      "udp://tracker.openbittorrent.com:80"
    ],
    "urlList": []
  },
  "previous": 8,
  "peers": 26,
  "last_updated": "2016-12-26T18:02:29.130Z"
}